<svg xmlns="http://www.w3.org/2000/svg" xmlns:xlink="http://www.w3.org/1999/xlink" viewBox="0 0 1920.81 346"><defs><style>.cls-1{fill:url(#Degradado_sin_nombre_7);}.cls-2{fill:url(#Degradado_sin_nombre_6);}.cls-3{fill:url(#Degradado_sin_nombre_7-2);}.cls-4{fill:url(#Degradado_sin_nombre_6-2);}</style><linearGradient id="Degradado_sin_nombre_7" x1="19.09" y1="14.15" x2="347.58" y2="280.16" gradientUnits="userSpaceOnUse"><stop offset="0" stop-color="#000c54"/><stop offset="0.13" stop-color="#0d115a"/><stop offset="0.36" stop-color="#311e6b"/><stop offset="0.68" stop-color="#6a3285"/><stop offset="1" stop-color="#a949a3"/></linearGradient><linearGradient id="Degradado_sin_nombre_6" x1="-63.75" y1="-10.3" x2="196.85" y2="133.92" gradientUnits="userSpaceOnUse"><stop offset="0" stop-color="#60308b"/><stop offset="1" stop-color="#a949a3"/></linearGradient><linearGradient id="Degradado_sin_nombre_7-2" x1="958.53" y1="15.22" x2="1311.85" y2="301.33" gradientTransform="matrix(-1, 0, 0, 1, 2858.81, 0)" xlink:href="#Degradado_sin_nombre_7"/><linearGradient id="Degradado_sin_nombre_6-2" x1="869.43" y1="-11.08" x2="1149.73" y2="144.04" gradientTransform="matrix(-1, 0, 0, 1, 2858.81, 0)" xlink:href="#Degradado_sin_nombre_6"/></defs><title>clouds</title><g id="Layer_2" data-name="Layer 2"><g id="Layer_1-2" data-name="Layer 1"><path class="cls-1" d="M401.34,11.54a33.2,33.2,0,0,0-2-11.54H.45V117.64L0,237.3v83.43A28.72,28.72,0,0,0,36.05,293a28.56,28.56,0,0,0-5.51-16.89,16.33,16.33,0,0,0,18.14-22.62,17.18,17.18,0,0,0,2.17.16,16.31,16.31,0,0,0,13.53-7.19,20.94,20.94,0,0,0,36.33-14.08,20.94,20.94,0,0,0,15.45-10.52A28.7,28.7,0,0,0,160,214.1a20.88,20.88,0,0,0,26.39,4,16.32,16.32,0,0,0,28,.8,16.33,16.33,0,0,0,30.11-8.76,16.49,16.49,0,0,0-1-5.64,16.34,16.34,0,0,0,11.11-15.39,16.28,16.28,0,0,0,21.66-4.75,20.95,20.95,0,0,0,36.47-20.41A21,21,0,0,0,331,147.68a21,21,0,0,0,30.11-28.36,15.81,15.81,0,0,0-4.41-29.38,15.45,15.45,0,0,0-4.12-13.34A15.77,15.77,0,0,0,357,65.74c0-.55,0-1.09-.08-1.62a17,17,0,0,0,14.37.64,9.56,9.56,0,1,0,10.59-15.83,17,17,0,0,0-1.29-6.51A33.33,33.33,0,0,0,401.34,11.54Z"/><path class="cls-2" d="M280.39,41.18A24.55,24.55,0,0,0,266.34,19,24.39,24.39,0,0,0,267,0H.45V161.17l-.45.15v36.36a19.07,19.07,0,0,0,24.83-18.19,19,19,0,0,0-1.36-7.06,24.94,24.94,0,0,0,5.23.57,24.55,24.55,0,0,0,22.35-14.4,34.94,34.94,0,0,0,42.26,3.34,19.06,19.06,0,0,0,32.6,12.29,24.57,24.57,0,1,0,41.83-25.74,24.6,24.6,0,0,0,14.42-18.81,24.52,24.52,0,0,0,34.67-25,34.94,34.94,0,0,0,47.5-40.43A24.57,24.57,0,0,0,280.39,41.18Z"/><path class="cls-3" d="M1489.13,12.41A35.73,35.73,0,0,1,1491.34,0h429V126.53l.49,128.71V345A30.86,30.86,0,0,1,1888,297a17.86,17.86,0,0,1-3.45.35,17.56,17.56,0,0,1-16.06-24.68,17.87,17.87,0,0,1-2.33.17,17.56,17.56,0,0,1-14.56-7.73,22.52,22.52,0,0,1-39.07-15.15,22.51,22.51,0,0,1-16.62-11.32,30.84,30.84,0,0,1-47.12-8.33,22.42,22.42,0,0,1-28.39,4.28,17.55,17.55,0,0,1-30.15.86,17.54,17.54,0,0,1-31.28-15.48,17.57,17.57,0,0,1-12-16.55,17.51,17.51,0,0,1-23.3-5.12,22.53,22.53,0,0,1-39.23-22,22.55,22.55,0,0,1-19.7-17.47,22.54,22.54,0,0,1-32.39-30.52,17,17,0,0,1,4.74-31.59,16.71,16.71,0,0,1,4.44-14.35,16.93,16.93,0,0,1-4.67-11.68A16.61,16.61,0,0,1,1537,69a18.3,18.3,0,0,1-15.47.69,10.29,10.29,0,1,1-11.39-17,18.28,18.28,0,0,1,1.4-7A35.85,35.85,0,0,1,1489.13,12.41Z"/><path class="cls-4" d="M1619.23,44.29a26.41,26.41,0,0,1,15.11-23.86,26.26,26.26,0,0,1-2.44-11A26.52,26.52,0,0,1,1633.64,0h286.68V173.35l.49.17v39.1a20.5,20.5,0,0,1-25.24-27.16,26.83,26.83,0,0,1-5.63.61,26.4,26.4,0,0,1-24-15.48,37.58,37.58,0,0,1-45.45,3.59,20.5,20.5,0,0,1-35.07,13.22,26.42,26.42,0,1,1-45-27.69,26.44,26.44,0,0,1-15.51-20.23,26.4,26.4,0,0,1-37.46-24,28.09,28.09,0,0,1,.17-2.92,37.61,37.61,0,0,1-52.14-34.68,38.06,38.06,0,0,1,1-8.8A26.43,26.43,0,0,1,1619.23,44.29Z"/></g></g></svg>